<svg width="40" height="40" viewBox="0 0 40 40" fill="none" xmlns="http://www.w3.org/2000/svg">
<path fill-rule="evenodd" clip-rule="evenodd" d="M19.9998 10.4167C17.0083 10.4167 14.5832 12.8418 14.5832 15.8333C14.5832 18.8249 17.0083 21.25 19.9998 21.25C22.9914 21.25 25.4165 18.8249 25.4165 15.8333C25.4165 12.8418 22.9914 10.4167 19.9998 10.4167ZM17.0832 15.8333C17.0832 14.2225 18.389 12.9167 19.9998 12.9167C21.6107 12.9167 22.9165 14.2225 22.9165 15.8333C22.9165 17.4442 21.6107 18.75 19.9998 18.75C18.389 18.75 17.0832 17.4442 17.0832 15.8333Z" fill="#9F9C96"/>
<path fill-rule="evenodd" clip-rule="evenodd" d="M19.9998 3.75C13.3264 3.75 7.91651 9.15989 7.91651 15.8333C7.91651 18.2802 8.64381 20.5572 9.89403 22.46L5.58397 29.9252C5.33887 30.3498 5.36454 30.8784 5.64963 31.2772C5.93473 31.676 6.42661 31.8713 6.90762 31.7767L11.2641 30.9203L12.7006 35.1213C12.8592 35.5852 13.2743 35.9135 13.7623 35.961C14.2502 36.0085 14.7208 35.7664 14.9659 35.3419L19.2655 27.8947C19.5084 27.9093 19.7533 27.9167 19.9998 27.9167C20.2464 27.9167 20.4913 27.9093 20.7342 27.8947L25.0338 35.3419C25.2791 35.7669 25.7504 36.009 26.2388 35.9609C26.7271 35.9128 27.1422 35.5834 27.2999 35.1188L28.7292 30.9092L33.0894 31.7762C33.5707 31.8719 34.0635 31.6772 34.3493 31.2783C34.6351 30.8794 34.6611 30.3502 34.4157 29.9252L30.1057 22.46C31.3559 20.5572 32.0832 18.2802 32.0832 15.8333C32.0832 9.15989 26.6733 3.75 19.9998 3.75ZM10.4165 15.8333C10.4165 10.5406 14.7071 6.25 19.9998 6.25C25.2926 6.25 29.5832 10.5406 29.5832 15.8333C29.5832 21.1261 25.2926 25.4167 19.9998 25.4167C14.7071 25.4167 10.4165 21.1261 10.4165 15.8333ZM16.6394 27.4433C14.7178 26.888 12.9931 25.8686 11.5947 24.5144L9.12434 28.7931L11.8526 28.2568C12.466 28.1362 13.0742 28.4873 13.2765 29.0789L14.1762 31.7098L16.6394 27.4433ZM25.8196 31.7029L23.3603 27.4433C25.2819 26.888 27.0066 25.8686 28.405 24.5144L30.8714 28.7862L28.1418 28.2435C27.5266 28.1212 26.916 28.4737 26.7143 29.0676L25.8196 31.7029Z" fill="#9F9C96"/>
</svg>
