<svg width="206" height="206" viewBox="0 0 206 206" fill="none" xmlns="http://www.w3.org/2000/svg">
<g clip-path="url(#clip0_350_2548)">
<rect width="206" height="206" fill="white"/>
<mask id="mask0_350_2548" style="mask-type:luminance" maskUnits="userSpaceOnUse" x="0" y="0" width="206" height="206">
<path d="M206 0H0V206H206V0Z" fill="white"/>
</mask>
<g mask="url(#mask0_350_2548)">
<mask id="mask1_350_2548" style="mask-type:luminance" maskUnits="userSpaceOnUse" x="-46" y="-46" width="298" height="298">
<path d="M-45.7783 -45.7788H251.779V251.779H-45.7783V-45.7788Z" fill="white"/>
</mask>
<g mask="url(#mask1_350_2548)">
<g opacity="0.397891">
<path d="M119.848 32.4085C119.848 35.9614 116.967 38.8418 113.415 38.8418C109.862 38.8418 106.981 35.9614 106.981 32.4085C106.981 28.8558 109.862 25.9756 113.415 25.9756C116.967 25.9756 119.848 28.8558 119.848 32.4085Z" fill="#41AE80"/>
</g>
<g opacity="0.689401">
<path d="M82.5262 45.1883L78.7057 47.394C78.014 47.7934 77.1296 47.5563 76.7302 46.8647L69.8317 34.916C69.4323 34.2244 69.6694 33.34 70.3609 32.9408L74.1816 30.7349C74.8731 30.3357 75.7575 30.5726 76.1569 31.2642L83.0554 43.2129C83.4548 43.9047 83.2177 44.7889 82.5262 45.1883Z" fill="#4582F5"/>
</g>
<g opacity="0.689401">
<path d="M32.5775 60.6301L33.4368 60.9216C34.4112 61.2521 35.4859 61.0818 36.3107 60.4663L37.038 59.9236C39.1147 58.3738 42.0674 59.8781 42.0343 62.4693L42.0227 63.3766C42.0095 64.4056 42.5033 65.3751 43.3434 65.9693L44.0845 66.4933C46.2002 67.9895 45.6817 71.2622 43.2073 72.0315L42.3406 72.3008C41.358 72.6062 40.5889 73.3758 40.2835 74.3584L40.0139 75.225C39.2448 77.6995 35.972 78.2178 34.4757 76.1021L33.9515 75.3612C33.3574 74.5211 32.3878 74.027 31.359 74.0403L30.4515 74.0517C27.8605 74.0848 26.3562 71.1325 27.906 69.0556L28.4489 68.3282C29.0644 67.5037 29.2345 66.429 28.904 65.4544L28.6125 64.5951C27.7804 62.1409 30.1233 59.798 32.5775 60.6301Z" fill="#4582F5"/>
</g>
<g opacity="0.689401">
<path d="M31.0987 95.1056L32.0636 99.4104C32.2384 100.19 31.7483 100.963 30.9689 101.138L17.506 104.156C16.7268 104.33 15.9534 103.84 15.7785 103.061L14.8136 98.7559C14.6391 97.9767 15.1291 97.2034 15.9083 97.0289L29.3715 94.0109C30.1507 93.8363 30.924 94.3264 31.0987 95.1056Z" fill="#4FD05C"/>
</g>
<g opacity="0.689401">
<path d="M40.8248 136.655C40.8248 140.207 37.9446 143.087 34.3919 143.087C30.8389 143.087 27.959 140.207 27.959 136.655C27.959 133.102 30.8389 130.222 34.3919 130.222C37.9446 130.222 40.8248 133.102 40.8248 136.655Z" fill="#F72581"/>
</g>
<g opacity="0.689401">
<path d="M32.5775 157.916L33.4368 158.207C34.4112 158.538 35.4859 158.367 36.3107 157.752L37.038 157.209C39.1147 155.66 42.0674 157.164 42.0343 159.755L42.0227 160.662C42.0095 161.691 42.5033 162.661 43.3434 163.255L44.0845 163.779C46.2002 165.275 45.6817 168.548 43.2073 169.317L42.3406 169.587C41.358 169.892 40.5889 170.661 40.2835 171.644L40.0139 172.511C39.2448 174.985 35.972 175.503 34.4757 173.388L33.9515 172.647C33.3574 171.807 32.3878 171.313 31.359 171.326L30.4515 171.338C27.8605 171.371 26.3562 168.418 27.906 166.342L28.4489 165.614C29.0644 164.789 29.2345 163.715 28.904 162.74L28.6125 161.881C27.7804 159.427 30.1233 157.084 32.5775 157.916Z" fill="#FFBC32"/>
</g>
<g opacity="0.689401">
<path d="M154.274 59.5336C152.325 56.9928 152.928 53.208 155.612 51.1492C158.295 49.0904 162.107 49.4869 164.056 52.0277C164.06 52.0325 164.064 52.0374 164.067 52.042" stroke="#F72581" stroke-width="14.7334" stroke-linecap="round" stroke-linejoin="round"/>
</g>
<g opacity="0.689401">
<path d="M167.089 81.8933L167.948 82.1848C168.923 82.5152 169.998 82.3449 170.822 81.7295L171.55 81.1868C173.627 79.637 176.579 81.1412 176.546 83.7324L176.534 84.6398C176.521 85.6688 177.015 86.6383 177.855 87.2325L178.596 87.7565C180.712 89.2527 180.194 92.5253 177.719 93.2946L176.852 93.564C175.87 93.8694 175.1 94.6389 174.795 95.6215L174.525 96.4882C173.756 98.9627 170.484 99.481 168.988 97.3652L168.464 96.6244C167.869 95.7843 166.9 95.2902 165.871 95.3035L164.963 95.3151C162.372 95.348 160.868 92.3957 162.418 90.319L162.961 89.5916C163.576 88.7669 163.746 87.6922 163.416 86.7176L163.124 85.8583C162.292 83.4041 164.635 81.0611 167.089 81.8933Z" fill="#FFBB31"/>
</g>
<g opacity="0.689401">
<path d="M171.794 137.675C176.168 138.251 179.267 142.526 178.659 147.146C178.051 151.765 173.951 155.093 169.577 154.517C169.568 154.516 169.56 154.514 169.552 154.513" stroke="#F72581" stroke-width="11.0501" stroke-linecap="round" stroke-linejoin="round"/>
</g>
<g opacity="0.689401">
<path d="M163.963 181.506L160.142 183.712C159.45 184.111 158.566 183.874 158.167 183.183L151.268 171.234C150.869 170.542 151.106 169.658 151.797 169.259L155.618 167.053C156.31 166.654 157.194 166.89 157.593 167.582L164.492 179.531C164.891 180.222 164.654 181.107 163.963 181.506Z" fill="#4683F5"/>
</g>
<g opacity="0.689401">
<path d="M68.8559 186.915C66.17 183.414 67.0015 178.2 70.6982 175.364C74.3949 172.527 79.6468 173.074 82.3327 176.574L82.3481 176.594" stroke="#41AE80" stroke-width="14.7334" stroke-linecap="round" stroke-linejoin="round"/>
</g>
</g>
<path d="M104.049 54.4282C76.5029 54.4282 54.1719 76.7592 54.1719 104.306C54.1719 131.852 76.5029 154.183 104.049 154.183C131.596 154.183 153.927 131.852 153.927 104.306C153.927 76.7592 131.596 54.4282 104.049 54.4282Z" fill="#25AA42"/>
<path d="M84.6182 106.188L97.3215 118.891L123.483 92.729" stroke="white" stroke-width="10" stroke-linecap="round" stroke-linejoin="round"/>
</g>
</g>
<defs>
<clipPath id="clip0_350_2548">
<rect width="206" height="206" fill="white"/>
</clipPath>
</defs>
</svg>
